<svg xmlns="http://www.w3.org/2000/svg" version="1.1" xmlns:xlink="http://www.w3.org/1999/xlink" xmlns:svgjs="http://svgjs.dev/svgjs" viewBox="0 0 600 600"><path d="M423.3043813761808 143.31866612052846C426.3148489054777 171.32913746452238 359.69180584517494 229.57521977043052 307.0740041789152 235.98883213615318C254.45620251265547 242.40244450187583 110.60803890791914 209.81081165885826 107.59757137862226 181.80034031486412C104.58710384932539 153.7898689708702 236.39339733687422 74.33961643791126 289.01119900313404 67.9260040721886C341.6290006693937 61.51239170646595 420.2939138468839 115.30819477653431 423.3043813761808 143.31866612052846C426.3148489054777 171.32913746452238 359.69180584517494 229.57521977043052 307.0740041789152 235.98883213615318 " fill="#e67b4f" transform="matrix(1.3400956406250004,0,0,1.3400956406250004,-57.33237407366579,97.73836258790547)" stroke-width="10" stroke="#fbc118" stroke-opacity="0.05" fill-opacity="1"></path><defs><linearGradient id="SvgjsLinearGradient1005"><stop stop-color="hsl(340, 45%, 50%)" offset="0"></stop><stop stop-color="hsl(340, 45%, 80%)" offset="1"></stop></linearGradient></defs><path d="M386.9703283339348 217.15881410172986C389.98079586323166 245.169285445724 323.3577528029289 303.4153677516322 270.73995113666916 309.82898011735483C218.1221494704094 316.2425924830774 74.27398586567307 283.6509596400599 71.2635183363762 255.6404882960658C68.25305080707932 227.63001695207166 200.05934429462815 148.17976441911267 252.6771459608879 141.76615205339002C305.2949476271477 135.35253968766736 383.9598608046379 189.14834275773572 386.9703283339348 217.15881410172986C389.98079586323166 245.169285445724 323.3577528029289 303.4153677516322 270.73995113666916 309.82898011735483 " fill-opacity="1" fill="hsl(50, 98%, 60%)" opacity="1" stroke-opacity="0.05" stroke-width="10" stroke="hsl(340, 45%, 30%)" transform="matrix(1.3400956406250004,0,0,1.3400956406250004,-15.685454823177565,23.669110573745314)"></path></svg>